<?xml version="1.0" encoding="UTF-8"?>
<svg width="83px" height="142px" viewBox="0 0 83 142" version="1.1" xmlns="http://www.w3.org/2000/svg" xmlns:xlink="http://www.w3.org/1999/xlink">
    <!-- Generator: Sketch 51.2 (57519) - http://www.bohemiancoding.com/sketch -->
    <title>back</title>
    <desc>Created with Sketch.</desc>
    <defs></defs>
    <g id="Symbols" stroke="none" stroke-width="1" fill="none" fill-rule="evenodd">
        <g id="back" transform="translate(0.000000, 1.000000)">
            <g>
                <path d="M25.2015203,0 C23.6204343,0.883333333 22.2499087,1.325 21.0899433,1.325 C19.3499954,1.325 17.3532443,0.21796875 16.8306754,1.325 C16.3081065,2.43203125 18.839117,10.5648438 18.839117,14.3851563 C18.839117,18.2054688 20.1931387,25.5085937 20.9805678,25.5085937 C21.767997,25.5085938 23.8146278,24.2851562 25.2015203,24.2851562 C26.5884128,24.2851562 28.0976666,24.2851562 29.5036537,24.2851562 C30.9096408,24.2851562 28.6350436,16.6265625 27.9675115,12.2429688 C27.2999794,7.859375 26.6456966,1.05703125 26.6456966,0.528515625 C26.6456966,0.176171875 26.1643045,0 25.2015203,0 Z" id="Path-15" stroke="#333333" stroke-width="0.8" fill="#3D6415"></path>
                <path d="M29.9899818,28 C28.4088959,28.8833333 27.0383702,29.325 25.8784049,29.325 C24.1384569,29.325 22.1417059,28.2179688 21.6191369,29.325 C21.096568,30.4320313 23.6275786,38.5648438 23.6275786,42.3851563 C23.6275786,46.2054688 24.9816002,53.5085937 25.7690294,53.5085938 C26.5564585,53.5085938 28.6030894,52.2851562 29.9899818,52.2851562 C31.3768743,52.2851562 32.8861282,52.2851562 34.2921153,52.2851562 C35.6981023,52.2851562 33.4235052,44.6265625 32.7559731,40.2429688 C32.0884409,35.859375 31.4341581,29.0570313 31.4341581,28.5285156 C31.4341581,28.1761719 30.952766,28 29.9899818,28 Z" id="Path-15-Copy" stroke="#333333" stroke-width="0.8" fill="#3D6415"></path>
                <path d="M34.7784434,56.8 C33.1973574,57.6833333 31.8268317,58.125 30.6668664,58.125 C28.9269184,58.125 26.9301674,57.0179687 26.4075985,58.125 C25.8850295,59.2320312 28.4160401,67.3648438 28.4160401,71.1851563 C28.4160401,75.0054688 29.7700618,82.3085937 30.5574909,82.3085938 C31.3449201,82.3085938 33.3915509,81.0851562 34.7784434,81.0851562 C36.1653358,81.0851562 37.6745897,81.0851562 39.0805768,81.0851562 C40.4865639,81.0851562 38.2119667,73.4265625 37.5444346,69.0429688 C36.8769025,64.659375 36.2226197,57.8570312 36.2226197,57.3285156 C36.2226197,56.9761719 35.7412276,56.8 34.7784434,56.8 Z" id="Path-15-Copy-2" stroke="#333333" stroke-width="0.8" fill="#3D6415"></path>
                <path d="M38.768828,85.6 C37.187742,86.4833333 35.8172164,86.925 34.657251,86.925 C32.9173031,86.925 30.920552,85.8179688 30.3979831,86.925 C29.8754142,88.0320313 32.4064247,96.1648438 32.4064247,99.9851563 C32.4064247,103.805469 33.7604464,111.108594 34.5478755,111.108594 C35.3353047,111.108594 37.3819355,109.885156 38.768828,109.885156 C40.1557205,109.885156 41.6649743,109.885156 43.0709614,109.885156 C44.4769485,109.885156 42.2023513,102.226563 41.5348192,97.8429688 C40.8672871,93.459375 40.2130043,86.6570313 40.2130043,86.1285156 C40.2130043,85.7761719 39.7316122,85.6 38.768828,85.6 Z" id="Path-15-Copy-3" stroke="#333333" stroke-width="0.8" fill="#3D6415"></path>
                <path d="M43.5572895,114.4 C41.9762035,115.283333 40.6056779,115.725 39.4457126,115.725 C37.7057646,115.725 35.7090135,114.617969 35.1864446,115.725 C34.6638757,116.832031 37.1948863,124.964844 37.1948863,128.785156 C37.1948863,132.605469 38.5489079,139.908594 39.3363371,139.908594 C40.1237662,139.908594 42.1703971,138.685156 43.5572895,138.685156 C44.944182,138.685156 46.4534359,138.685156 47.8594229,138.685156 C49.26541,138.685156 46.9908129,131.026563 46.3232807,126.642969 C45.6557486,122.259375 45.0014658,115.457031 45.0014658,114.928516 C45.0014658,114.576172 44.5200737,114.4 43.5572895,114.4 Z" id="Path-15-Copy-4" stroke="#333333" stroke-width="0.8" fill="#3D6415"></path>
                <path d="M63.7078153,41.1964844 C76.7326801,48.3985677 82.8894591,56.9330729 82.1781522,66.8 C81.8952092,70.7248583 81.0639657,75.2562562 78.7910015,79.9179687 C72.6646977,92.482649 60.2196699,105.427419 46.8258385,104.960156 C28.4626653,104.319531 26.7807805,90.3699219 27.6217229,84.9292969 C28.1754879,81.3466163 32.4484249,76.0033794 38.0411471,75.5960937 C40.9414801,75.3848793 44.1435528,76.1668633 47.4785626,79.9179687 C49.9884982,82.7410588 49.764071,86.246875 48.5248695,88.8441406 C46.041331,94.0494355 37.1436706,95.2148489 35.7568078,89.3980469 C34.7990161,85.3808617 37.266225,83.3621311 39.4245324,83.3277344 C41.4724503,83.2950969 43.5078739,85.1202711 42.7204965,86.5246094 C41.1032997,89.4089844 41.1032997,83.3800781 38.8123357,85.5964844 C36.5213717,87.8128906 38.7067308,92.7296875 44.3626333,90.3027344 C50.0185359,87.8757812 45.7822594,77.9804687 39.4245324,77.9804687 C36.933247,77.9804687 31.4835111,80.803125 30.794936,86.5246094 C29.9182067,93.8094975 37.307623,102.893044 48.0030799,99.6921875 C57.7643543,96.7709065 63.0730804,90.0112183 61.8186176,81.5800781 C61.6504063,80.4495441 60.8234926,79.0034504 59.3378765,77.2417969 C56.7002916,73.7434003 54.9939865,71.0367871 54.2189613,69.121957 C53.443936,67.207127 52.920328,64.4043653 52.648137,60.7136719 C51.3915296,54.0183594 51.9151377,49.3946615 54.2189613,46.8425781 C56.5227849,44.2904948 59.6857362,42.4084635 63.7078153,41.1964844 Z" id="Path-5" stroke="#333333" stroke-width="0.8" fill="#8DAE3C"></path>
                <path d="M59.9870934,98.0890625 C57.9558156,99.5048437 55.8747516,100.503888 53.8765348,101.202651 C51.8126641,101.924373 49.8371741,102.325757 48.096206,102.53512" id="Path-16" stroke="#FFFFFF" stroke-width="1.2" stroke-linecap="round"></path>
                <path d="M45.3649473,102.729948 C43.5169337,102.770938 42.2042588,102.612392 41.7458919,102.534375 C38.6167706,102.001776 36.123548,100.563392 34.1843571,98.7682485 C32.0313479,96.7751695 30.5612829,94.3423196 29.6621188,92.2210938 C29.0484534,90.7733904 28.7891138,88.9971733 28.8841,87.252915 C28.9536227,85.9762504 29.2129623,84.7167065 29.6621188,83.615625 C30.6382739,81.2226364 32.4063977,79.3347388 34.419036,78.1510257 C35.9467074,77.2525411 37.6152534,76.7597656 39.1852652,76.7597656 C41.4951913,76.7597656 43.801253,77.745617 45.221891,79.1734375 C47.4239917,81.3866717 48.1094642,83.615625 48.1094642,86.3964844" id="Path-16" stroke="#FFFFFF" stroke-width="0.8" stroke-linecap="round"></path>
                <ellipse id="Oval" stroke="#333333" stroke-width="0.8" cx="52.2740385" cy="35.6" rx="3.59134615" ry="3.6"></ellipse>
                <path d="M63.8839534,41.1199219 C65.2831859,36.4701823 62.4270473,32.6403646 55.3155377,29.6304688 C44.6482732,25.115625 39.8375995,27.1140625 39.282297,28.3722656 C38.7269944,29.6304688 37.9826942,28.4488281 37.9826942,29.6304688 C37.9826942,30.8121094 38.6619169,37.2328125 40.6150231,42.5566406 C42.5681293,47.8804688 43.9448899,50.6664062 48.078679,52.175 C52.2124681,53.6835938 56.7815364,49.5273437 59.9835862,46.6125 C62.1182861,44.6692708 63.4184085,42.8384115 63.8839534,41.1199219 Z" id="Path-8" stroke="#333333" stroke-width="0.8" fill="#AAC157"></path>
                <path d="M50.9269047,29.9748809 C56.5189143,31.8813149 59.5399179,34.2901777 60.809136,36.8122329 C61.6178798,38.4192823 61.7205577,39.41321 61.3981464,40.6664063" id="Path-12" stroke="#FFFFFF" stroke-width="1.6" stroke-linecap="round"></path>
                <ellipse id="Path" stroke="#333333" stroke-width="0.8" fill="#FFE48C" cx="52.2740385" cy="35.6" rx="3.59134615" ry="3.6"></ellipse>
                <ellipse id="Oval-2" stroke="#333333" stroke-width="0.8" cx="51.875" cy="33.6" rx="1.59615385" ry="1.6"></ellipse>
                <ellipse id="Path" stroke="#333333" stroke-width="0.8" fill="#8DAE3C" cx="51.875" cy="33.6" rx="1.59615385" ry="1.6"></ellipse>
                <path d="M64.7789012,46.5535127 C70.2708353,50.0854353 73.7172719,55.9173373 75.118211,64.0492187 C75.9216295,68.7127361 75.807256,73.1167552 74.7750903,77.261276 C74.3655345,78.9057916 73.5172313,80.914604 72.2301806,83.2877134" id="Path-10" stroke="#FFFFFF" stroke-width="2.4" stroke-linecap="round"></path>
                <path d="M25.7642875,78.2392043 C27.2525643,75.1304685 28.7839841,73.0903968 30.3585471,72.1189891 C32.7203916,70.6618776 36.598732,69.2123893 39.8498033,70.5425602 C42.0171841,71.4293408 44.7083414,73.7239481 47.9232751,77.426382 C49.0666469,77.5885119 50.3620622,78.1054852 51.8095211,78.9773019 C55.0189883,80.9103912 56.1774372,85.1770982 56.1774372,84.0685205 C56.1774372,82.0786767 54.9677483,80.519944 56.4150421,80.519944 C57.8623359,80.519944 58.9546282,86.6378142 60.8076465,85.9863412 C62.6606648,85.3348682 63.1760204,84.686691 60.700735,82.0902066 C58.2254495,79.4937223 57.8281878,78.2212358 58.8335777,78.2212358 C59.8389675,78.2212358 63.8698208,82.9232896 65.5754764,80.4721177 C67.281132,78.0209459 60.0726083,77.4390721 61.0292874,75.9742283 C61.9859665,74.5093846 65.7912014,74.9755177 65.438325,72.6485986 C65.0854485,70.3216795 62.2008949,71.3229538 59.5934246,72.9228698 C56.9859543,74.5227857 54.5953121,75.6181298 55.3863747,74.1333642 C56.1774372,72.6485986 59.8927035,68.638833 57.0468267,68.638833 C54.2009498,68.638833 53.5390913,74.0094505 51.8408397,74.0094505 C50.1425881,74.0094505 45.2819498,66.485105 40.1219498,65.1412429 C36.6819497,64.2453349 32.2466146,64.6595354 26.8159443,66.3838444" id="Path-11" stroke="#333333" stroke-width="0.8" fill="#8DAE3C" stroke-linecap="round" transform="translate(45.801016, 75.358328) scale(-1, 1) rotate(-31.000000) translate(-45.801016, -75.358328) "></path>
                <path d="M21.9350917,46.8005595 C26.5081536,47.2119117 29.4307172,47.0162421 30.7027825,46.2135508 C32.6108804,45.0095139 35.6086642,43.4050713 38.2351548,44.504215 C39.9861485,45.2369774 42.1602932,47.1330518 44.7575887,50.1924382 C46.1519011,52.7567928 47.0651146,54.8546621 47.497229,56.4860461 C48.1454007,58.9331221 50.3954759,58.3969251 50.0382692,55.7910118 C49.8135436,54.1515819 48.3672573,52.1305055 49.5365037,52.1305055 C50.7057501,52.1305055 52.3832651,57.2405034 54.2542533,56.6719764 C56.1252414,56.1034494 54.493413,54.0863956 52.4936679,51.9408748 C50.4939228,49.795354 57.0404202,51.5504249 57.5341663,49.9366734 C58.0279125,48.3229218 57.0392548,47.5738216 54.2789657,48.1873429 C51.5186765,48.8008641 51.6667992,48.1855834 52.3058865,46.9586954 C52.9449738,45.7318074 55.0256855,44.695333 52.9033183,43.6693113 C50.7809511,42.6432895 49.0887858,46.1018317 47.7167944,46.1018317 C46.344803,46.1018317 43.2264862,41.6929731 38.4550178,40.0410113 C36.6289384,39.4087922 32.8032278,40.210848 29.8483164,40.1190582 C28.3866755,40.0736546 26.3618956,39.7662883 23.7739768,39.1969593" id="Path-11-Copy" stroke="#333333" stroke-width="0.648" fill="#8DAE3C" stroke-linecap="round" transform="translate(39.795647, 48.629141) scale(-1, -1) rotate(8.000000) translate(-39.795647, -48.629141) "></path>
                <path d="M38.98068,29.0359375 C41.1070666,29.5916667 42.6189184,30.5554687 43.5162354,31.9273437 C44.44134,33.3417024 45.6109117,36.2256597 46.7221764,38.240855 C47.2277396,39.1576559 47.7212347,39.8946457 48.1741521,40.2316406" id="Path-9" stroke="#333333" stroke-width="0.8" stroke-linecap="round"></path>
                <path d="M48.2333571,41.4973626 C49.2099421,42.1330925 50.0640537,42.4084779 50.795692,42.3235187" id="Path-9" stroke="#333333" stroke-width="0.8" stroke-linecap="round" transform="translate(49.514525, 41.917952) rotate(147.000000) translate(-49.514525, -41.917952) "></path>
                <path d="M17.5635376,22.7472656 C18.5268414,21.8308594 14.8521024,15.4289063 10.9587496,12.6753906 C8.36318109,10.8397135 5.4879479,10.0751302 2.33305007,10.3816406 C3.30466715,13.6472656 5.5797839,16.5246094 9.15840032,19.0136719 C14.5263249,22.7472656 16.6002338,23.6636719 17.5635376,22.7472656 Z" id="Path-2" stroke="#333333" stroke-width="0.8" fill="#8DAE3C"></path>
                <path d="M15.7464318,25.9910156 C14.7244153,24.3722656 12.2679647,23.5628906 8.37707989,23.5628906 C4.4861951,23.5628906 1.86815467,24.3722656 0.522958609,25.9910156 C1.60057029,27.7688802 4.21861071,28.6578125 8.37707989,28.6578125 C12.5355491,28.6578125 14.9919997,27.7688802 15.7464318,25.9910156 Z" id="Path-13" stroke="#333333" stroke-width="0.8" fill="#8DAE3C"></path>
                <path d="M18.0440204,27.9816406 C15.9568622,28.8795573 14.3047235,30.1388021 13.0876042,31.759375 C11.870485,33.3799479 11.4462468,35.9223958 11.8148898,39.3867188 C14.614394,37.6892621 16.3960383,35.7884157 17.1598229,33.6841797 C17.9236075,31.5799436 18.21834,29.6790973 18.0440204,27.9816406 Z" id="Path-14" stroke="#333333" stroke-width="0.8" fill="#8DAE3C"></path>
                <g id="Group" transform="translate(22.282245, 116.478125) scale(1, -1) rotate(15.000000) translate(-22.282245, -116.478125) translate(13.104361, 101.278125)" fill="#8DAE3C" stroke="#333333" stroke-width="0.8">
                    <path d="M17.5635376,13.1472656 C18.5268414,12.2308594 14.8521024,5.82890625 10.9587496,3.07539063 C8.36318109,1.23971354 5.4879479,0.475130208 2.33305007,0.781640625 C3.30466715,4.04726563 5.5797839,6.92460938 9.15840032,9.41367188 C14.5263249,13.1472656 16.6002338,14.0636719 17.5635376,13.1472656 Z" id="Path-2"></path>
                    <path d="M15.7464318,16.3910156 C14.7244153,14.7722656 12.2679647,13.9628906 8.37707989,13.9628906 C4.4861951,13.9628906 1.86815467,14.7722656 0.522958609,16.3910156 C1.60057029,18.1688802 4.21861071,19.0578125 8.37707989,19.0578125 C12.5355491,19.0578125 14.9919997,18.1688802 15.7464318,16.3910156 Z" id="Path-13"></path>
                    <path d="M18.0440204,18.3816406 C15.9568622,19.2795573 14.3047235,20.5388021 13.0876042,22.159375 C11.870485,23.7799479 11.4462468,26.3223958 11.8148898,29.7867187 C14.614394,28.0892621 16.3960383,26.1884157 17.1598229,24.0841797 C17.9236075,21.9799436 18.21834,20.0790973 18.0440204,18.3816406 Z" id="Path-14"></path>
                </g>
                <path d="M70.8145189,86.3964844 C69.4716439,88.2241395 68.4754097,89.5410278 67.8258162,90.3471494 C66.7654291,91.6630509 64.9855957,93.65625 62.7998469,95.7464844" id="Path-16" stroke="#FFFFFF" stroke-width="1.6" stroke-linecap="round"></path>
                <path d="M41.9274855,85.4886719 C41.4308624,84.8071606 41.0005518,84.4134106 40.6365535,84.3074219 C38.8575951,83.7894261 37.1989196,84.9448265 36.7228394,87.1285156 C36.1226869,89.8813002 38.7912926,91.8790639 40.6365535,92.0769531 C42.0269657,92.2260635 44.0438184,91.8790639 44.6334651,91.4890625" id="Path-17" stroke="#FFFFFF" stroke-width="0.5" stroke-linecap="round"></path>
            </g>
        </g>
    </g>
</svg>